<?xml version="1.0" standalone="no"?>
<!DOCTYPE svg PUBLIC "-//W3C//DTD SVG 20010904//EN"
 "http://www.w3.org/TR/2001/REC-SVG-20010904/DTD/svg10.dtd">
<svg version="1.0" xmlns="http://www.w3.org/2000/svg"
 width="260.000000pt" height="260.000000pt" viewBox="0 0 260.000000 260.000000"
 preserveAspectRatio="xMidYMid meet">
<metadata>
Created by potrace 1.11, written by Peter Selinger 2001-2013
</metadata>
<g transform="translate(0.000000,260.000000) scale(0.100000,-0.100000)"
fill="#000000" stroke="none">
<path d="M1205 2423 c-29 -3 -122 -18 -176 -28 -89 -17 -265 -88 -323 -130
-18 -13 -17 -15 5 -47 13 -18 27 -34 31 -36 4 -2 8 -8 8 -13 0 -10 34 -60 63
-93 9 -11 17 -24 17 -29 0 -4 6 -15 13 -22 29 -33 37 -45 32 -45 -4 0 0 -6 7
-14 7 -7 20 -24 28 -36 8 -12 21 -28 28 -36 6 -7 12 -17 12 -23 0 -5 6 -14 14
-18 8 -4 15 -11 15 -16 1 -14 54 -87 62 -87 5 0 9 -7 9 -15 0 -19 13 -19 51 1
43 22 154 41 219 38 132 -7 265 -77 349 -184 75 -95 113 -217 106 -346 -6
-118 -31 -188 -106 -292 -32 -46 -36 -57 -26 -73 6 -10 15 -19 20 -19 4 0 6
-4 3 -8 -3 -5 10 -26 29 -48 19 -21 35 -45 35 -52 0 -7 5 -10 10 -7 6 3 10 -1
10 -10 0 -8 6 -18 14 -21 9 -3 12 -12 9 -21 -4 -11 -2 -14 5 -9 7 4 12 1 12
-8 0 -9 5 -16 10 -16 6 0 10 -5 10 -10 0 -6 9 -20 20 -32 11 -12 20 -28 20
-35 0 -8 5 -11 10 -8 6 3 10 -3 10 -15 0 -12 4 -19 9 -16 5 3 14 -8 21 -24 7
-17 15 -30 19 -30 3 0 17 -18 31 -39 13 -22 28 -38 32 -35 4 3 5 -2 2 -10 -4
-9 1 -18 10 -22 9 -3 13 -11 10 -16 -18 -29 51 25 116 91 172 174 257 337 316
606 10 49 14 326 4 375 -4 25 -11 61 -14 80 -16 96 -69 230 -134 339 -46 75
-49 80 -116 160 -182 217 -442 363 -705 396 -59 8 -219 12 -266 8z"/>
<path d="M487 2096 c-79 -78 -107 -110 -153 -176 -101 -146 -168 -325 -189
-505 -8 -64 -8 -244 -1 -285 3 -14 7 -42 10 -62 57 -382 355 -741 732 -883
220 -83 496 -92 739 -26 148 41 294 123 247 139 -7 2 -12 9 -12 16 0 6 -9 18
-20 26 -11 8 -20 20 -20 27 0 7 -8 13 -17 13 -15 0 -16 2 -3 10 10 6 11 10 3
10 -7 0 -13 7 -13 15 0 8 -7 15 -16 15 -8 0 -12 4 -9 10 3 5 1 10 -5 10 -6 0
-8 5 -5 10 3 6 -1 10 -10 10 -9 0 -14 4 -10 9 3 5 -2 16 -10 24 -8 9 -15 21
-15 27 0 6 -4 8 -10 5 -5 -3 -10 0 -10 8 0 7 -9 23 -19 34 -11 12 -17 24 -14
27 4 3 1 6 -6 6 -7 0 -10 4 -7 8 3 5 -4 15 -15 22 -10 8 -19 18 -19 23 0 4 -9
17 -20 29 -10 12 -17 25 -14 30 3 4 0 8 -6 8 -6 0 -15 12 -20 26 -6 14 -14 22
-20 19 -6 -3 -10 4 -10 16 0 17 -4 20 -22 15 -190 -58 -303 -52 -436 22 -65
37 -162 138 -194 205 -44 88 -58 158 -54 261 5 118 33 199 103 292 26 35 30
62 9 70 -8 3 -20 19 -26 35 -7 16 -16 29 -21 29 -5 0 -9 7 -9 15 0 8 -4 15
-10 15 -5 0 -10 7 -10 15 0 8 -4 15 -10 15 -5 0 -10 5 -10 10 0 6 -9 20 -20
32 -11 12 -26 34 -32 50 -7 15 -16 28 -20 28 -5 0 -8 6 -8 14 0 8 -4 16 -8 18
-5 2 -29 35 -55 73 -26 39 -54 77 -62 86 -8 9 -15 21 -15 27 0 7 -4 12 -10 12
-5 0 -10 8 -10 18 0 34 -31 19 -103 -52z"/>
</g>
</svg>
